# xmcd CD database file
#
# Track frame offsets:
#	150
#	23975
#	45720
#	59952
#	76735
#	94137
#	113790
#	130935
#	153202
#	174937
#
# Disc length: 2700 seconds
#
# Revision: 0
# Processed by: cddbd v1.5.1PL0 Copyright (c) Steve Scherf et al.
# Submitted via: CDex 1.51
#
DISCID=7b0a8a0a
DTITLE=ザ・コブラツイスターズ - ウヅキ
DYEAR=2005
DGENRE=ロック (日本)
TTITLE0=サクラサク平成十七年
TTITLE1=どんがらがっしゃん
TTITLE2=チャンス到来
TTITLE3=UFOガールと地底ボーイ
TTITLE4=今宵は無礼講
TTITLE5=白い砂
TTITLE6=三日月夜
TTITLE7=最後の約束
TTITLE8=マグマロック
TTITLE9=無限∞
EXTD=YEAR: 2005
EXTT0=
EXTT1=
EXTT2=
EXTT3=
EXTT4=
EXTT5=
EXTT6=
EXTT7=
EXTT8=
EXTT9=
PLAYORDER=
